<?xml version="1.0" encoding="UTF-8"?>
<svg version="1.1" viewBox="0 0 1600 570" width="177" height="63" xmlns="http://www.w3.org/2000/svg">
<path transform="translate(155,69)" d="m0 0h22l76 16h10l41-9 33-7h22l13 4 13 8 10 10 7 12 4 14 15 5 13 8 10 10 7 12 4 13v22l-15 70-1 4v11l16 75v21l-5 15-7 11-10 10-10 6-11 4-6 2-3 11-6 12-9 10-7 6-12 6-11 3h-21l-52-11-23-5h-11l-65 14-10 2h-21l-12-4-11-6-11-10-7-11-4-10-2-7-9-3-9-4-11-7-7-7-7-11-5-13-1-5v-17l8-39 8-36v-16l-9-40-7-35v-15l3-12 7-14 11-12 11-7 11-4h6l3-12 7-14 11-12 13-8z" fill="#4480EA"/>
<path transform="translate(249,87)" d="m0 0h12l47 10 64 14 33 7 3 8 10 47 1 16-1 12-3 14 2 1-3 9-3 3-2-4-6 1-4-3-6 7-3 3-4-3 2-4h2l-3-5-2-1-7-1-1 2 1-4 1-5-11 4 3 4-5 1-5-4-3 1-2-4-11-2h-4l1 6v5l-4 1h-5l-7-11-14-14-14-9-15-6-14-3h-25l-15 4-12 5-13 8-10 9-7 8-8 13-6 16-3 17v29l-3-1-2-7-1-13-2 1-2 7v11l-2 1-1-2-2 1-4-5h-3l-1-2-11 2-1 1h-6l-1-1h-16l-2 2-10 2-3-4-5 4-6-1-1 2-2 1-1-4-1-24h-2l1-8 11-52 17-79 1-3 16-4 57-12 55-12z" fill="#5666EE"/>
<path transform="translate(244,179)" d="m0 0h25l17 4 14 6 13 9 14 14 9 14 5 12 4 16v24l-3 14-5 13-7 12-9 11-10 9-13 8-12 5-15 4-8 1h-11l-17-3-12-4-14-7-10-8-10-10-7-10-7-14-4-13-2-12v-14l3-17 6-16 9-14 9-10 9-8 16-9 14-5z" fill="#ECF0FE"/>
<path transform="translate(155,69)" d="m0 0h22l76 16h10l41-9 33-7h22l13 4 13 8 10 10 7 12 3 9v5h-9l-52-11-74-16-11-2h-10l-39 9-75 16-26 5-2 12-19 89-8 37-3 17h-1l-1-15-9-40-7-35v-15l3-12 7-14 11-12 11-7 11-4h6l3-12 7-14 11-12 13-8z" fill="#ADA4FB"/>
<path transform="translate(916,232)" d="m0 0h17l14 3 11 6 6 5 6 10 2 7v86h-28v-14l-8 7-8 6-9 3-11 1-13-2-12-6-8-9-4-10v-16l4-10 7-8 11-6 13-3 38-3-3-15-5-5-3-2-5-1h-10l-10 4-5 8-1 2h-26l-1-3 3-10 5-9 9-8 10-5zm17 67-20 2-9 4-4 5-1 7 4 8 8 4h14l9-4 7-8 3-9v-8l-1-1z" fill="#0FA4D9"/>
<path transform="translate(791,232)" d="m0 0h12l12 2 14 7 9 8 7 11 4 12 2 20v6l-1 1-78 1 1 10 5 10 8 6 6 2h14l10-5 5-6 2-3h26l-1 8-6 11-9 9-14 7-14 3h-12l-13-2-14-6-11-10-6-9-5-15-2-17 2-19 4-12 9-14 9-8 13-6zm-1 23-8 4-7 8-3 8v5h50l1-2-5-13-7-7-7-3z" fill="#4480EA"/>
<path transform="translate(75,274)" d="m0 0h3l4 15 8 40 9 41 8 37 2 7 7 2 57 12 47 10 23 5 8 4v1l-65 14-10 2h-21l-12-4-11-6-11-10-7-11-4-10-2-7-9-3-9-4-11-7-7-7-7-11-5-13-1-5v-17l8-39z" fill="#77B1F4"/>
<path transform="translate(407,126)" d="m0 0 2 4 9 43 1 16-1 12-3 14 2 1-3 9-3 3-2-4-6 1-4-3-6 7-3 3-4-3 2-4h2l-3-5-2-1-7-1-1 2 1-4 1-5-11 4 3 4-5 1-5-4-3 1-2-4-11-2h-4l1 6v5l-4 1h-5l-7-11-17-17h2v-2h-2v-2h-2l-5-9 5-3 3-2v-2h5l1-4h6l5-4 1-2 14-3 11-5 4-5 2-4 7 1 2-5 8 3 2-3 7 5 2-3 4 3v-9l7 1-1-5h3l2 2 3-3z" fill="#526FEC"/>
<path transform="translate(607,232)" d="m0 0h14l14 3 10 5 10 9 6 9 3 9 1 9h-27l-6-12-6-5-4-2-10-1-10 3-6 5-6 12-2 10v13l3 12 4 8 6 5 6 3h14l8-4 5-6 4-9h27l-2 13-6 11-9 10-14 7-7 2-8 1h-10l-13-2-14-6-11-10-7-11-4-11-2-14v-12l2-14 6-15 8-10 8-7 13-6z" fill="#5767EE"/>
<path transform="translate(1380,235)" d="m0 0h19l13 4 9 6 7 7 6 11 4 13 1 10v11l-1 1h-82l2 12 5 12 6 7 12 6 6 1h9l11-3 9-7 5-10h16l1 2-5 13-9 10-9 6-13 4-13 1-14-2-12-5-10-8-7-10-5-13-2-11v-18l2-12 5-13 7-10 7-7 12-6zm1 15-9 4-8 7-6 12-2 7v4h66l-1-9-4-10-5-7-9-6-6-2z" fill="#1F2733"/>
<path transform="translate(1123,235)" d="m0 0h20l13 4 11 7 7 8 7 14 3 12 1 17-2 15-5 13-7 11-8 7-12 6-8 2h-21l-10-3-8-4-10-9-7-11-5-15-1-9v-14l2-13 5-13 7-10 9-8 11-5zm1 15-12 6-7 8-5 11-2 10v17l3 12 6 11 8 7 9 4 12 1 9-2 10-6 7-9 4-10 2-13-1-16-4-13-7-10-9-6-6-2z" fill="#1F2733"/>
<path transform="translate(690,193)" d="m0 0h27l1 1v155h-29v-155z" fill="#4680EA"/>
<path transform="translate(174,227)" d="m0 0 4 2-6 18-2 13v29l-3-1-2-7-1-13-2 1-2 7v11l-2 1-1-2-2 1-4-5h-3l-1-2-11 2-1 1h-6l-1-1h-16l-2 2-10 2-3-4-5 4-6-1-1 2-2 1-1-4-1-24h-2l1-8 4-20h2v2l4 1 2-1v10l2-4h3v-5l6-1 6 2 2-2 2 4-1 2 3-2 4 1 3 1 1-1h5l3 2 4-1 1-4 5-2v-2h10l4-1v2l2 1 1 1 6-5h1l2 6h2l3-8z" fill="#526FEC"/>
<path transform="translate(1051,232)" d="m0 0h12l1 1 1 22-1 4-14-1-10 3-7 8-3 10-1 70-25 1-3-1-1-114 1-1h28 v15h2l1-5 8-8 5-3z" fill="#0CABD6"/>
<path transform="translate(337,69)" d="m0 0h22l13 4 13 8 10 10 7 12 3 9v5h-9l-52-11-74-16-7-3v-2l41-9z" fill="#C39CFE"/>
<path transform="translate(155,69)" d="m0 0h22l76 16 13 2v1h-17l-39 9-75 16-26 5-1 8h-1l1-9 5-15 6-10 9-10 14-9z" fill="#848CF6"/>
<path transform="translate(400,117)" d="m0 0 9 1 14 5 11 7 10 10 7 12 4 13v22l-15 70-2 4-4-9-9-40-11-54-8-36-1-3-5-1z" fill="#77B1F4"/>
<path transform="translate(437,264)" d="m0 0h1l3 17 14 66v21l-5 15-7 11-10 10-10 6-11 4-6 1 2-13 19-90 6-27 3-12z" fill="#ADA4FB"/>
<path transform="translate(400,416)" d="m0 0h5l-1 9-7 14-9 10-7 6-12 6-11 3h-21l-52-11-23-5 4-2 11-4 56-12 53-11z" fill="#69CDF4"/>
<path transform="translate(1313,191)" d="m0 0h13l3 1v13l-15 2-5 3-3 6-1 21h24v13h-24v99l-3 1h-13l-1-1v-99h-15v-13l14-1 2-25 4-9 5-6 9-4z" fill="#1F2733"/>
<path transform="translate(1241,191)" d="m0 0h14l3 2v8l-1 4-15 2-4 2-3 5-1 5-1 18h24v13l-23 1-1 98-15 1-1-1-1-98-15-1v-13h15l1-24 3-9 5-7 10-5z" fill="#1F2732"/>
<path transform="translate(931,280)" d="m0 0h11l3 6v6l-2 2v5l-30 3-9 4-3 4-1 7 3 7 8 4h14l10-4 1 4-2 3 1 3-1 2 6 1-6 7-8 5-14 3-13-1-11-4-8-6-6-8-3-8v-16l4-10 7-8 11-6 13-3z" fill="#1C99DB"/>
<path transform="translate(1500,235)" d="m0 0h16l1 1v15l-2 1-5-1h-7l-9 3-6 5-5 10-1 5-1 75-6 1h-10l-1-5v-108h17v14l8-10 8-5z" fill="#202835"/>
<path transform="translate(110,419)" d="m0 0h7l3 1v3l5 1 1 4 3 2 10-1 14 6 13 2 1-3 8-1h9l17 3 12 3 1 4-10 3-6 4-24 3-11 1h-7v2l16 1 6 2 1 4-3 1h-21l-12-4-11-6-11-10-7-11-4-10z" fill="#9CADF7"/>
<path transform="translate(75,274)" d="m0 0h3l4 15 3 17v9l1 7h-2l1 6-1 1 1 6v12l-4 1 2 9-1 6 1 2h-5l-5 5-1 3h5l4-1 1 5-4 1-2 6 2 2v5l-7 2-6-9-5-13-1-5v-17l8-39z" fill="#81ABF6"/>
<path transform="translate(109,416)" d="m0 0 13 1 55 12 58 12 13 4 3 3-65 14-7 1-1-4-19-2-3-1-1-3h13l11-2 19-2 8-5 8-1-1-3-15-4-18-2h-10l-3 1-1 2-13-1-7-3-8-3-9 1-4-3v-4l-5-1v-3h-9z" fill="#83ACF7"/>
<path transform="translate(916,232)" d="m0 0h17l11 2-3 2h-2v8l-3 4-7 3 1 2-1 2 3 1h-14l-10 4-5 8-1 2h-26l-1-3 3-10 5-9 9-8 10-5z" fill="#1D99DB"/>
<path transform="translate(638,308)" d="m0 0h27l-2 13-6 11-8 9-4-1-3 1-11 2-4-2v-3h3l-1-2-5-1v2h-11l1-3 8-1 4-8 7-6z" fill="#5270EC"/>
<path transform="translate(620,239)" d="m0 0h9l1 1h10l1 1 2-2 8 6 7 8 5 10 1 9-13 2-6-2-3-3-4-6-4-4-4-6-4-5-8-3v-5z" fill="#526FEC"/>
<path transform="translate(109,416)" d="m0 0 13 1 55 12 29 6v2l-8-1-18-2h-10l-3 1-1 2-13-1-7-3-8-3-9 1-4-3v-4l-5-1v-3h-9z" fill="#81ABF6"/>
<path transform="translate(400,117)" d="m0 0 9 1 14 5 5 4-4 4h-4l1 4-4-1-2-4h-3v15h-1l-5-23-1-3-5-1z" fill="#82AAF6"/>
<path transform="translate(191,323)" d="m0 0 4 1 11 8 13 8 12 6 1 4-7-1-16-8-10-8-8-8z" fill="#FBFBFE"/>
<path transform="translate(312,331)" d="m0 0h2l-1 4-11 8-13 6-9 3h-5l4-4 13-4 7-4 5-2v-2z" fill="#FAFBFE"/>
<path transform="translate(89,202)" d="m0 0h2l-2 13-9 41h-1l-1-7 1-7 1-8 5-12 2-9 1-9z" fill="#95A4F6"/>
<path transform="translate(847,316)" d="m0 0h1v6l-6 11-6 6-4 1-1-5 3-3 6-2 1-5 3-6z" fill="#1D98DB"/>
<path transform="translate(152,446)" d="m0 0 7 2v2l-5 2-2 2v2l2 2-5 1-3-1-2-5 4-3 1-3z" fill="#81ACF7"/>
<path transform="translate(166,267)" d="m0 0 2 3-1 6h2l1 4v9l-3-1-2-7v-8z" fill="#4F71EB"/>
<path transform="translate(316,203)" d="m0 0 4 2 7 7v2l-4 1-6-8z" fill="#FCFCFE"/>
<path transform="translate(635,315)" d="m0 0 3 2-4 6-4 4-6 2 2-4 7-6z" fill="#5D70EF"/>
<path transform="translate(365,221)" d="m0 0h2l2 4-1 4-3 1-4-6 4-1z" fill="#526FEC"/>
<path transform="translate(89,202)" d="m0 0h2l-2 13-2 8h-1v-8l1-2 1-9z" fill="#909DF6"/>
<path transform="translate(169,254)" d="m0 0h1v26l-1-4h-2l1-18z" fill="#6B92F1"/>
<path transform="translate(876,266)" d="m0 0 7 1 2 2-1 1h-8z" fill="#4C88EB"/>
<path transform="translate(359,225)" d="m0 0h2l2 5-5 2-1-4z" fill="#526FEC"/>
<path transform="translate(849,283)" d="m0 0h1v13l-2-2-1-8z" fill="#1C98DB"/>
</svg>